<svg width="138" height="60" viewBox="0 0 138 60" fill="none" xmlns="http://www.w3.org/2000/svg">
<path d="M23.0877 38.9905V35.8733L29.7405 29.2356V29.0348H23.3357V26.2695H33.5134V29.412L26.8607 36.0245V36.2252H33.8859V38.9905H23.0869H23.0877Z" fill="black"/>
<path d="M35.0049 32.6291C35.0049 28.7324 37.8348 25.9419 41.782 25.9419C45.7292 25.9419 48.5591 28.7324 48.5591 32.6291C48.5591 36.5259 45.7541 39.3164 41.782 39.3164C37.81 39.3164 35.0049 36.5511 35.0049 32.6291ZM45.307 32.6291C45.307 30.341 43.9169 28.8332 41.782 28.8332C39.6471 28.8332 38.257 30.3418 38.257 32.6291C38.257 34.9165 39.672 36.4259 41.782 36.4259C43.892 36.4259 45.307 34.9425 45.307 32.6291Z" fill="black"/>
<path d="M50.2939 38.9905V26.2687H53.3719V28.0033H53.5701C54.3149 26.545 55.7299 25.9419 57.2942 25.9419C60.0495 25.9419 61.7382 27.8277 61.7382 30.9197V38.9905H58.6602V31.6489C58.6602 29.8135 57.6923 28.808 56.0285 28.808C54.3647 28.808 53.3719 29.8639 53.3719 31.6489V38.9905H50.2939Z" fill="black"/>
<path d="M63.3799 32.6291C63.3799 28.7324 65.8623 25.9419 69.4371 25.9419C71.1747 25.9419 72.8377 26.6458 73.7069 28.2049H73.8811V26.2687H76.9839V38.9905H73.8811V37.0543H73.7069C72.8377 38.6133 71.1996 39.3172 69.4371 39.3172C65.8623 39.3172 63.3799 36.5519 63.3799 32.63V32.6291ZM73.8802 32.6291C73.8802 30.3158 72.4653 28.808 70.2557 28.808C68.0462 28.808 66.6063 30.3166 66.6063 32.6291C66.6063 34.9417 68.0462 36.4503 70.2557 36.4503C72.4653 36.4503 73.8802 34.9669 73.8802 32.6291Z" fill="black"/>
<path d="M79.3916 44.0187V26.2687H82.4696V28.2049H82.6678C83.5121 26.6458 85.1751 25.9419 86.9127 25.9419C90.4875 25.9419 92.9948 28.7072 92.9948 32.6291C92.9948 36.5511 90.4875 39.3164 86.9127 39.3164C85.1751 39.3164 83.5121 38.6125 82.6678 37.0534H82.4696V44.0179H79.3916V44.0187ZM89.7435 32.63C89.7435 30.2923 88.3036 28.8088 86.0941 28.8088C83.8845 28.8088 82.4696 30.2923 82.4696 32.63C82.4696 34.9677 83.9094 36.4511 86.0941 36.4511C88.2788 36.4511 89.7435 34.9425 89.7435 32.63Z" fill="black"/>
<path d="M94.7557 38.9904V26.2686H97.8337V28.3803H98.0319C98.5038 26.7457 99.3722 26.1426 101.234 26.1426H101.78V29.2598H100.092C98.4541 29.2598 97.8328 30.4165 97.8328 32.1007V38.9895H94.7549L94.7557 38.9904Z" fill="black"/>
<path d="M102.204 32.6291C102.204 28.7324 105.034 25.9419 108.981 25.9419C112.928 25.9419 115.758 28.7324 115.758 32.6291C115.758 36.5259 112.953 39.3164 108.981 39.3164C105.009 39.3164 102.204 36.5511 102.204 32.6291ZM112.506 32.6291C112.506 30.341 111.116 28.8332 108.981 28.8332C106.846 28.8332 105.456 30.3418 105.456 32.6291C105.456 34.9165 106.871 36.4259 108.981 36.4259C111.091 36.4259 112.506 34.9425 112.506 32.6291Z" fill="black"/>
<path d="M117.497 44.0187V26.2687H120.575V28.2049H120.773C121.618 26.6458 123.281 25.9419 125.018 25.9419C128.593 25.9419 131.1 28.7072 131.1 32.6291C131.1 36.5511 128.593 39.3164 125.018 39.3164C123.281 39.3164 121.618 38.6125 120.773 37.0534H120.575V44.0179H117.497V44.0187ZM127.849 32.63C127.849 30.2923 126.409 28.8088 124.2 28.8088C121.99 28.8088 120.575 30.2923 120.575 32.63C120.575 34.9677 122.015 36.4511 124.2 36.4511C126.384 36.4511 127.849 34.9425 127.849 32.63Z" fill="black"/>
<path d="M6.61683 33.5275C5.9873 33.7585 5.94915 34.6456 6.55628 34.9303L8.95245 36.0559C9.13326 36.1408 9.33979 36.1492 9.52723 36.0794L15.2178 33.9584V30.375L6.61683 33.5267V33.5275Z" fill="#FF5500"/>
<path d="M12.8952 36.5011C12.2673 36.7347 12.2316 37.6209 12.8396 37.9039L15.2142 39.0111V35.6401L12.8952 36.5011Z" fill="#FF5500"/>
<path d="M19.5202 17.9474C19.5202 14.5858 16.7657 11.8751 13.4182 12.0044C10.3602 12.1229 7.87526 14.658 7.77905 17.7559C7.69113 20.5817 9.5515 22.9807 12.1019 23.6846V26.2735L6.64026 28.2761C6.01074 28.5071 5.97259 29.3941 6.57972 29.6789L8.97589 30.8045C9.1567 30.8893 9.36322 30.8977 9.55067 30.828L15.2164 28.7171V23.6779C17.698 22.9832 19.521 20.6816 19.521 17.9466L19.5202 17.9474ZM13.6538 20.7488C12.1351 20.7488 10.9043 19.5023 10.9043 17.9642C10.9043 16.4262 12.1351 15.1796 13.6538 15.1796C15.1724 15.1796 16.4033 16.4262 16.4033 17.9642C16.4033 19.5023 15.1724 20.7488 13.6538 20.7488Z" fill="#FF5500"/>
</svg>
